<?xml version='1.0' encoding='UTF-8'?>
<svg version="1.1" id="img" xmlns="http://www.w3.org/2000/svg" x="0px" y="0px" viewBox="0 0 140 140" enable-background="new 0 0 140 140" xml:space="preserve">
<g>
	<path fill-rule="evenodd" clip-rule="evenodd"
		  d="M47.859,133.494c15.773-26.223,42.522-26.507,68.646-39.045   c43.616-25.462,19.736-61.675-26.402-56.558l-2.795-5.741C74.486,9.238,39.361-0.503,21.116,20.889   c-4.903,5.749-6.431,13.024-6.064,21.702c1.604-16.286,40.152-37.999,52.478,2.625c42.286-8.489,45.476,21.924,27.589,38.226   C81.273,96.058,63.66,95.754,50.036,112.544c-13.695-7.273-19.829-13.153-26.882-30.419   C29.828,103.101,35.843,114.834,47.859,133.494L47.859,133.494z"/>
</g>
</svg>